<svg id="圖層_1" data-name="圖層 1" xmlns="http://www.w3.org/2000/svg" viewBox="0 0 141.4 26.76"><defs><style>.cls-1{fill:none;stroke:#c4a47e;stroke-miterlimit:10;stroke-width:1.01px;}.cls-2{fill:#c4a47e;}</style></defs><title>footer-logo</title><polyline class="cls-1" points="4.61 26.26 4.61 5.62 40.34 5.62 40.34 26.26 87.56 26.26"/><polyline class="cls-1" points="0.5 22.22 0.5 1.58 44.59 1.58 44.59 22.22 84.37 22.22"/><path class="cls-2" d="M98.91,451.84a6.33,6.33,0,0,1-2.12,4.52,7.42,7.42,0,0,1-5,1.65,6.67,6.67,0,0,1-5.38-2.31,9.4,9.4,0,0,1-2-6.31V448.3a10.73,10.73,0,0,1,.9-4.52,6.71,6.71,0,0,1,2.58-3,8.05,8.05,0,0,1,8.86.6A6.75,6.75,0,0,1,98.93,446H95.27a3.72,3.72,0,0,0-1-2.5,3.57,3.57,0,0,0-2.51-.77,3.1,3.1,0,0,0-2.74,1.31,7.43,7.43,0,0,0-.93,4.07v1.34a7.87,7.87,0,0,0,.87,4.21A3.06,3.06,0,0,0,91.76,455a3.6,3.6,0,0,0,2.53-.78,3.54,3.54,0,0,0,1-2.4Z" transform="translate(-34.98 -439.74)"/><path class="cls-2" d="M114.62,454.1H108.2L107,457.76h-3.89L109.7,440h3.4l6.65,17.77h-3.89Zm-5.43-3h4.44l-2.23-6.65Z" transform="translate(-34.98 -439.74)"/><path class="cls-2" d="M131.26,451.26h-2.91v6.5h-3.67V440h6.61a7.5,7.5,0,0,1,4.86,1.4,4.85,4.85,0,0,1,1.71,4,5.5,5.5,0,0,1-.79,3,5.39,5.39,0,0,1-2.39,1.94l3.85,7.26v.17H134.6Zm-2.91-3h3a3,3,0,0,0,2.14-.7,2.54,2.54,0,0,0,.75-1.94,2.67,2.67,0,0,0-.71-2,3,3,0,0,0-2.19-.72h-2.94Z" transform="translate(-34.98 -439.74)"/><path class="cls-2" d="M150.49,451.26h-2.91v6.5h-3.67V440h6.61a7.5,7.5,0,0,1,4.86,1.4,4.85,4.85,0,0,1,1.71,4,5.5,5.5,0,0,1-.79,3,5.39,5.39,0,0,1-2.39,1.94l3.85,7.26v.17h-3.93Zm-2.91-3h2.95a3,3,0,0,0,2.14-.7,2.54,2.54,0,0,0,.75-1.94,2.67,2.67,0,0,0-.71-2,3,3,0,0,0-2.19-.72h-2.94Z" transform="translate(-34.98 -439.74)"/><path class="cls-2" d="M168.69,448l3.69-8h4l-5.84,11.33v6.44h-3.72v-6.44L161,440h4Z" transform="translate(-34.98 -439.74)"/></svg>