<svg id="圖層_1" data-name="圖層 1" xmlns="http://www.w3.org/2000/svg" viewBox="0 0 141.4 26.76"><defs><style>.cls-1{fill:none;stroke:#fff;stroke-miterlimit:10;stroke-width:1.01px;}.cls-2{fill:#fff;}</style></defs><title>logo</title><polyline class="cls-1" points="4.61 26.26 4.61 5.62 40.34 5.62 40.34 26.26 87.56 26.26"/><polyline class="cls-1" points="0.5 22.22 0.5 1.58 44.59 1.58 44.59 22.22 84.37 22.22"/><path class="cls-2" d="M95.66,619.33a6.28,6.28,0,0,1-2.12,4.51,7.44,7.44,0,0,1-5,1.65,6.67,6.67,0,0,1-5.37-2.3,9.41,9.41,0,0,1-2-6.32v-1.08a10.69,10.69,0,0,1,.9-4.52,6.79,6.79,0,0,1,2.58-3,8.08,8.08,0,0,1,8.86.61,6.79,6.79,0,0,1,2.17,4.62H92a3.7,3.7,0,0,0-1-2.49,3.54,3.54,0,0,0-2.51-.78,3.13,3.13,0,0,0-2.74,1.31,7.32,7.32,0,0,0-.93,4.08V617a7.89,7.89,0,0,0,.87,4.21,3,3,0,0,0,2.75,1.33,3.67,3.67,0,0,0,2.54-.77,3.54,3.54,0,0,0,.95-2.4Z" transform="translate(-31.73 -607.23)"/><path class="cls-2" d="M111.37,621.58H105l-1.22,3.67h-3.9l6.62-17.78h3.39l6.66,17.78h-3.9Zm-5.43-3h4.44L108.15,612Z" transform="translate(-31.73 -607.23)"/><path class="cls-2" d="M128,618.74h-2.92v6.51h-3.66V607.47H128a7.42,7.42,0,0,1,4.85,1.41,4.83,4.83,0,0,1,1.71,4,5.51,5.51,0,0,1-.78,3,5.38,5.38,0,0,1-2.39,1.93l3.84,7.27v.17h-3.93Zm-2.92-3h3a3,3,0,0,0,2.13-.7,2.49,2.49,0,0,0,.76-1.93,2.71,2.71,0,0,0-.71-2,3,3,0,0,0-2.19-.72h-2.95Z" transform="translate(-31.73 -607.23)"/><path class="cls-2" d="M147.24,618.74h-2.92v6.51h-3.66V607.47h6.61a7.42,7.42,0,0,1,4.85,1.41,4.83,4.83,0,0,1,1.71,4,5.51,5.51,0,0,1-.78,3,5.38,5.38,0,0,1-2.39,1.93l3.84,7.27v.17h-3.93Zm-2.92-3h3a3,3,0,0,0,2.13-.7,2.49,2.49,0,0,0,.76-1.93,2.71,2.71,0,0,0-.71-2,3,3,0,0,0-2.19-.72h-3Z" transform="translate(-31.73 -607.23)"/><path class="cls-2" d="M165.43,615.48l3.7-8h4L167.3,618.8v6.45h-3.72V618.8l-5.84-11.33h4Z" transform="translate(-31.73 -607.23)"/></svg>